<svg width="32" height="35" viewBox="0 0 32 35" fill="none" xmlns="http://www.w3.org/2000/svg">
<path fill-rule="evenodd" clip-rule="evenodd" d="M16.0016 22.589L26.3586 33.193C27.3976 34.265 28.0736 34.276 29.1316 33.193L31.2096 31.065C32.2276 30.023 32.2966 29.339 31.2096 28.226L20.2446 17.001L31.2106 5.77599C32.2376 4.72099 32.2576 4.00899 31.2106 2.93599L29.1326 0.808988C28.0546 -0.295012 27.3886 -0.244012 26.3596 0.808988L16.0016 11.413L5.64465 0.809988C4.61565 -0.243012 3.94965 -0.294012 2.87165 0.809988L0.793649 2.93699C-0.254351 4.00999 -0.235351 4.72199 0.793649 5.77699L11.7586 17.001L0.793649 28.226C-0.293351 29.339 -0.235351 30.023 0.793649 31.065L2.87065 33.193C3.91965 34.276 4.59565 34.265 5.64365 33.193L16.0016 22.589Z" fill="#DA1823"/>
</svg>
