<svg width="50" height="50" viewBox="0 0 50 50" fill="none" xmlns="http://www.w3.org/2000/svg">
<path d="M26.875 21.875C25.625 21.5625 24.375 20.9375 23.4375 20C22.5 19.6875 22.1875 18.75 22.1875 18.125C22.1875 17.5 22.5 16.5625 23.125 16.25C24.0625 15.625 25 15 25.9375 15.3125C27.8125 15.3125 29.375 16.25 30.3125 17.5L33.125 13.75C32.1875 12.8125 31.25 12.1875 30.3125 11.5625C29.375 10.9375 28.125 10.625 26.875 10.625V6.25H23.125V10.625C21.5625 10.9375 20 11.875 18.75 13.125C17.5 14.6875 16.5625 16.5625 16.875 18.4375C16.875 20.3125 17.5 22.1875 18.75 23.4375C20.3125 25 22.5 25.9375 24.375 26.875C25.3125 27.1875 26.5625 27.8125 27.5 28.4375C28.125 29.0625 28.4375 30 28.4375 30.9375C28.4375 31.875 28.125 32.8125 27.5 33.75C26.5625 34.6875 25.3125 35 24.375 35C23.125 35 21.5625 34.6875 20.625 33.75C19.6875 33.125 18.75 32.1875 18.125 31.25L15 34.6875C15.9375 35.9375 16.875 36.875 18.125 37.8125C19.6875 38.75 21.5625 39.6875 23.4375 39.6875V43.75H26.875V39.0625C28.75 38.75 30.3125 37.8125 31.5625 36.5625C33.125 35 34.0625 32.5 34.0625 30.3125C34.0625 28.4375 33.4375 26.25 31.875 25C30.3125 23.4375 28.75 22.5 26.875 21.875ZM25 0C11.25 0 0 11.25 0 25C0 38.75 11.25 50 25 50C38.75 50 50 38.75 50 25C50 11.25 38.75 0 25 0ZM25 46.5625C13.125 46.5625 3.4375 36.875 3.4375 25C3.4375 13.125 13.125 3.4375 25 3.4375C36.875 3.4375 46.5625 13.125 46.5625 25C46.5625 36.875 36.875 46.5625 25 46.5625Z" fill="#00386E"/>
</svg>
