<svg width="36" height="54" viewBox="0 0 36 54" fill="none" xmlns="http://www.w3.org/2000/svg">
<path d="M6.54545 24.7273V13.3636C6.54545 6.54545 11.0909 2 17.9091 2C24.7273 2 29.2727 6.54545 29.2727 13.3636V24.7273H6.54545ZM17.9091 52C22.1284 52 26.175 50.3239 29.1585 47.3403C32.142 44.3568 33.8182 40.3103 33.8182 36.0909C33.8182 31.8716 32.142 27.825 29.1585 24.8415C26.175 21.858 22.1284 20.1818 17.9091 20.1818C13.6897 20.1818 9.6432 21.858 6.65966 24.8415C3.67613 27.825 2 31.8716 2 36.0909C2 40.3103 3.67613 44.3568 6.65966 47.3403C9.6432 50.3239 13.6897 52 17.9091 52V52ZM17.9091 33.8182V42.9091V33.8182ZM17.9091 36.0909C18.5119 36.0909 19.0899 35.8515 19.5162 35.4252C19.9424 34.999 20.1818 34.4209 20.1818 33.8182C20.1818 33.2154 19.9424 32.6373 19.5162 32.2111C19.0899 31.7849 18.5119 31.5455 17.9091 31.5455C17.3063 31.5455 16.7282 31.7849 16.302 32.2111C15.8758 32.6373 15.6364 33.2154 15.6364 33.8182C15.6364 34.4209 15.8758 34.999 16.302 35.4252C16.7282 35.8515 17.3063 36.0909 17.9091 36.0909V36.0909Z" stroke="#00386E" stroke-width="3.5"/>
</svg>
